<?xml version="1.0" encoding="UTF-8" standalone="no"?>
<!DOCTYPE svg PUBLIC "-//W3C//DTD SVG 1.1//EN" "http://www.w3.org/Graphics/SVG/1.1/DTD/svg11.dtd">
<svg width="100%" height="100%" viewBox="0 0 301 301" version="1.1" xmlns="http://www.w3.org/2000/svg" xmlns:xlink="http://www.w3.org/1999/xlink" xml:space="preserve" xmlns:serif="http://www.serif.com/" style="fill-rule:evenodd;clip-rule:evenodd;stroke-linejoin:round;stroke-miterlimit:2;">
    <g transform="matrix(1,0,0,1,-1609,-1719)">
        <g id="flexibel" transform="matrix(0.775862,0,0,0.775862,2188.3,1790.5)">
            <rect x="-746.003" y="-91.183" width="386.667" height="386.667" style="fill:white;"/>
            <g transform="matrix(0.922603,0,0,0.922603,-1107.55,-675.799)">
                <path d="M570.491,678.817C586.483,678.817 599.466,691.8 599.466,707.792C599.466,723.783 586.483,736.766 570.491,736.766C554.5,736.766 541.517,723.783 541.517,707.792C541.517,691.8 554.5,678.817 570.491,678.817ZM570.491,689.993C560.668,689.993 552.693,697.968 552.693,707.792C552.693,717.615 560.668,725.59 570.491,725.59C580.315,725.59 588.29,717.615 588.29,707.792C588.29,697.968 580.315,689.993 570.491,689.993Z"/>
            </g>
            <g transform="matrix(-1.57827,0,0,0.789136,481.126,-903.593)">
                <path d="M645.128,1201.29C635.797,1210.8 625.996,1220.43 620.265,1228.62C617.712,1232.26 615.889,1235.8 614.953,1238.89C614.356,1240.86 614.045,1242.77 613.959,1244.57L613.967,1246.83L614.222,1249.1C615.308,1255.42 617.869,1258.99 621.757,1259.66C627.678,1260.69 637.775,1253.55 647.932,1244.47C649.578,1243 650.317,1239.13 649.581,1235.84C648.845,1232.54 646.911,1231.07 645.265,1232.54C637.457,1239.52 629.748,1245.61 624.355,1246.59C623.256,1246.79 622.283,1246.78 621.471,1246.38C621.123,1246.21 620.813,1245.98 620.605,1245.54C620.733,1245.15 620.918,1244.63 621.081,1244.27C622.126,1241.97 623.776,1239.52 625.813,1236.87C636.682,1222.77 657.621,1205.11 667.364,1191.1C669.933,1187.4 671.799,1183.81 672.793,1180.63C673.395,1178.7 673.737,1176.82 673.865,1175.05L673.919,1172.83L673.745,1170.57C673.227,1166.61 671.32,1162.19 666.77,1159.57C653.947,1152.17 618.584,1132.18 604.055,1133.62C601.241,1133.9 599.058,1135.04 597.642,1136.72C597.298,1137.13 596.987,1137.58 596.709,1138.05L595.865,1139.8L595.199,1141.99L594.799,1144.47C594.382,1148.72 595.116,1152.94 597.324,1156.67C599.192,1159.83 602.472,1162.9 606.593,1165.83C615.013,1171.82 627.273,1177.84 636.167,1186.83C640.255,1190.96 643.688,1195.42 645.128,1201.29ZM650.89,1195.34C649.148,1188.72 645.951,1182.93 641.763,1178.04C634.463,1169.51 624.09,1163.35 615.323,1157.83C609.944,1154.45 605.21,1151.39 602.439,1147.96C602.31,1147.8 602.175,1147.61 602.043,1147.41C602.71,1147.1 603.583,1146.76 604.378,1146.68C609.541,1146.16 617.472,1148.61 626.015,1152.14C640.701,1158.21 657.129,1167.61 664.961,1172.12C665.776,1172.59 666.623,1173.43 667.118,1173.95C666.881,1174.61 666.53,1175.53 666.203,1176.16C664.177,1180.11 660.762,1184.44 656.688,1189.05C654.864,1191.11 652.914,1193.22 650.89,1195.34Z"/>
            </g>
            <g transform="matrix(-1.57827,0,0,0.789136,481.126,-903.593)">
                <path d="M687.714,1302.67C687.093,1295.67 686.683,1288.14 686.683,1280.45C686.683,1236.33 688.087,1218.88 688.087,1218.88C688.115,1218.53 688.129,1218.18 688.129,1217.83L687.859,1214.56L687.49,1212.96L686.976,1211.53L686.238,1210.16L685.448,1209.19C684.835,1208.58 684.068,1208.11 683.143,1207.9C681.267,1207.48 678.369,1208.22 674.75,1210.13C667.382,1214.02 656.53,1222.65 645.286,1232.52C644.618,1233.11 644.067,1234.12 643.721,1235.41C643.721,1235.41 638.65,1254.11 638.65,1280.45C638.65,1338.7 646.294,1409.74 654.516,1447.13C656.787,1457.45 659.15,1465.33 661.379,1470.03C663.513,1474.53 665.721,1476.48 667.693,1476.48L668.717,1476.19L669.645,1475.35L670.445,1473.99L671.092,1472.03C671.352,1470.95 671.593,1469.27 671.686,1467C671.814,1463.88 671.712,1458.96 671.416,1452.68C670.061,1423.93 664.719,1364.24 664.216,1325.87C664.179,1323.09 664.168,1320.42 664.186,1317.89C666.529,1330.02 670.261,1346.35 676.13,1366.14C678.982,1375.76 681.637,1381.96 683.997,1385.54C686.028,1388.63 687.952,1390.01 689.704,1390.25C692.525,1390.64 695.09,1388.23 697.249,1383.25C699.617,1377.78 701.538,1368.72 702.841,1358.11C705.201,1338.88 705.684,1314.48 704.444,1300.02C704.072,1295.68 703.53,1292.14 702.89,1289.63C702.195,1286.92 701.314,1285.13 700.427,1284.1C697.962,1281.25 695.889,1281.13 694.167,1282.36C692.008,1283.92 690.105,1288.38 688.802,1295.51C688.412,1297.64 688.055,1300.05 687.714,1302.67ZM684.781,1331.73C684.82,1332.02 684.869,1332.31 684.928,1332.59C686.46,1341.45 687.768,1346.91 687.768,1346.91C688.547,1350.16 690.499,1351.54 692.125,1349.98C693.751,1348.42 694.439,1344.52 693.66,1341.27C693.66,1341.27 692.616,1336.91 691.336,1329.74C692.668,1318.47 693.575,1307.45 694.938,1300C695.332,1297.84 696.181,1295.29 696.365,1294.75C696.484,1294.83 696.722,1294.99 696.94,1295.19C697.093,1295.95 697.757,1299.34 698.005,1302.23C699.131,1315.36 698.64,1337.53 696.496,1354.99C695.632,1362.03 694.518,1368.28 693.067,1372.68C692.206,1375.29 691.372,1377.38 690.154,1377.22C689.208,1377.09 688.241,1375.81 687.107,1373.72C685.452,1370.67 683.683,1366 681.75,1359.48C669.093,1316.79 666.888,1291.37 666.888,1291.37C666.686,1288.95 665.826,1286.97 664.662,1286.23C663.497,1285.48 662.222,1286.1 661.357,1287.83C660.115,1290.31 659.084,1294.44 658.478,1300.11C657.776,1306.67 657.547,1315.69 657.685,1326.21C658.191,1364.85 663.547,1424.95 664.912,1453.91C664.985,1455.45 665.034,1457.03 665.067,1458.52C663.552,1454.49 662.022,1448.81 660.496,1441.87C652.535,1405.66 645.183,1336.85 645.183,1280.45C645.183,1262.37 647.907,1248.44 649.016,1243.52C660.25,1233.71 670.955,1225.26 677.823,1222.07C679.038,1221.5 680.401,1221.22 681.362,1221.08C680.931,1228.81 680.15,1247.4 680.15,1280.45C680.15,1300.29 682.646,1319.19 684.781,1331.73Z"/>
            </g>
        </g>
    </g>
</svg>
