<?xml version="1.0" encoding="UTF-8" standalone="no"?>
<!DOCTYPE svg PUBLIC "-//W3C//DTD SVG 1.1//EN" "http://www.w3.org/Graphics/SVG/1.1/DTD/svg11.dtd">
<svg width="100%" height="100%" viewBox="0 0 301 400" version="1.1" xmlns="http://www.w3.org/2000/svg" xmlns:xlink="http://www.w3.org/1999/xlink" xml:space="preserve" xmlns:serif="http://www.serif.com/" style="fill-rule:evenodd;clip-rule:evenodd;stroke-linejoin:round;stroke-miterlimit:2;">
    <g transform="matrix(1,0,0,1,-544,0)">
        <g id="icon" transform="matrix(0.559864,0,0,0.795393,489.706,-87.5862)">
            <rect x="97.87" y="110.117" width="535.844" height="502.896" style="fill:none;"/>
            <g transform="matrix(1.78615,0,0,1.25724,-76.1353,45.9466)">
                <path d="M203.048,377.706C192.096,368.749 194.066,343.026 191.242,324.552C187.914,302.785 169.603,257.852 186.528,232.91C204.236,206.814 191.768,197.724 193.085,179.116C189.541,175.059 188.708,169.004 190.385,163.724C191.491,160.244 193.664,157.108 196.815,155.105C196.915,154.886 197.023,154.658 197.14,154.421C197.14,154.421 185.141,152.638 184.032,134.476C182.923,116.314 194.153,111.046 200.946,117.146C206.579,122.203 208.876,137.077 209.496,142.013C212.407,140.547 215.902,139.403 220.084,138.854L220.084,137.496C220.084,137.095 220.245,136.71 220.531,136.428C220.817,136.146 221.205,135.99 221.606,135.997L229.925,136.122C230.744,136.134 231.402,136.802 231.402,137.621L231.402,138.73C235.828,139.109 239.658,139.931 242.957,141.07L243.786,138.621C243.786,138.621 248.624,128.846 250,117.7C251.386,106.47 266.662,108.733 268.603,122.83C270.544,136.927 260.437,148.143 260.437,148.143C259.746,149.421 258.943,150.926 258.101,152.439C259.156,154.13 259.92,155.842 260.437,157.49C260.437,157.49 263.335,159.708 263.335,176.761C263.335,193.814 249.915,212.253 261.824,236.931C273.733,261.609 302.986,256.618 313.106,279.632C323.227,302.647 296.47,349.923 295.361,366.837C295.285,367.984 295.119,369.041 294.876,370.007C294.876,370.007 301.183,388.188 288.983,388.188C276.783,388.188 276.367,385.276 278.14,375.309C275.404,372.902 273.455,369.007 273.455,363.787C273.455,346.734 275.119,326.909 270.128,320.254L267.093,319.557C257.71,340.46 256.967,375.241 243.786,380.173C243.786,390.961 240.875,391.515 232.695,391.515C220.919,391.515 227.745,377.141 228.706,375.227C226.15,372.819 224.629,370.538 224.629,370.538C223.752,372.609 222.739,374.435 221.566,375.954C221.629,376.142 221.688,376.338 221.742,376.542C224.793,387.91 218.514,390.845 206.769,389.436C196.371,388.188 202.471,378.147 202.471,378.147C202.471,378.147 202.678,377.982 203.048,377.706ZM228.402,152.912L228.402,139.099L223.084,139.019L223.084,152.883C224.866,152.893 226.621,152.903 228.402,152.912ZM204.967,155.831C198.782,155.831 194.767,159.84 193.245,164.632C191.869,168.963 192.479,173.953 195.434,177.244C197.386,179.418 200.366,180.807 204.412,180.807L248.5,180.807C253.855,180.807 257.233,176.827 258.437,172.135C260.272,164.988 257.122,155.97 247.643,155.97C229.922,155.97 222.297,155.831 204.967,155.831Z" style="fill:rgb(142,142,143);"/>
            </g>
        </g>
    </g>
</svg>
