<?xml version="1.0" encoding="UTF-8" standalone="no"?>
<!DOCTYPE svg PUBLIC "-//W3C//DTD SVG 1.1//EN" "http://www.w3.org/Graphics/SVG/1.1/DTD/svg11.dtd">
<svg width="100%" height="100%" viewBox="0 0 211 330" version="1.1" xmlns="http://www.w3.org/2000/svg" xmlns:xlink="http://www.w3.org/1999/xlink" xml:space="preserve" xmlns:serif="http://www.serif.com/" style="fill-rule:evenodd;clip-rule:evenodd;stroke-linejoin:round;stroke-miterlimit:2;">
    <g transform="matrix(1,0,0,1,-486,0)">
        <g id="augen" transform="matrix(0.393043,0,0,0.655064,447.533,-72.1336)">
            <rect x="97.87" y="110.117" width="535.844" height="502.896" style="fill:none;"/>
            <g transform="matrix(2.54425,0,0,1.81526,96.0098,19.1496)">
                <path d="M42.319,113.507C53.681,106.75 68.73,107.857 77.772,121.731C65.045,131.266 51.142,125.812 42.319,113.507Z" style="fill:rgb(140,115,124);"/>
            </g>
            <g transform="matrix(-2.54425,0,0,1.81526,511.746,19.1496)">
                <path d="M42.319,113.507C53.681,106.75 68.73,107.857 77.772,121.731C65.045,131.266 51.142,125.812 42.319,113.507Z" style="fill:rgb(140,115,124);"/>
            </g>
            <g transform="matrix(2.54425,0,0,1.52657,97.8696,56.2511)">
                <circle cx="59.314" cy="116.049" r="6.405" style="fill:rgb(242,94,13);"/>
            </g>
            <g transform="matrix(0.666298,0,0,1.52657,209.259,56.2511)">
                <circle cx="59.314" cy="116.049" r="6.405" style="fill:rgb(100,77,179);"/>
            </g>
            <g transform="matrix(2.54425,0,0,1.52657,205.521,56.2511)">
                <circle cx="59.314" cy="116.049" r="6.405" style="fill:rgb(242,94,13);"/>
            </g>
            <g transform="matrix(0.666298,0,0,1.52657,315.365,56.2511)">
                <circle cx="59.314" cy="116.049" r="6.405" style="fill:rgb(100,77,179);"/>
            </g>
        </g>
    </g>
</svg>
