<?xml version="1.0" encoding="UTF-8" standalone="no"?>
<!DOCTYPE svg PUBLIC "-//W3C//DTD SVG 1.1//EN" "http://www.w3.org/Graphics/SVG/1.1/DTD/svg11.dtd">
<svg width="100%" height="100%" viewBox="0 0 212 330" version="1.1" xmlns="http://www.w3.org/2000/svg" xmlns:xlink="http://www.w3.org/1999/xlink" xml:space="preserve" xmlns:serif="http://www.serif.com/" style="fill-rule:evenodd;clip-rule:evenodd;stroke-linejoin:round;stroke-miterlimit:2;">
    <g transform="matrix(1,0,0,1,-1260,0)">
        <g id="fell" transform="matrix(0.393043,0,0,0.655064,1222.02,-72.1336)">
            <rect x="97.87" y="110.117" width="535.844" height="502.896" style="fill:none;"/>
            <g transform="matrix(2.54425,0,0,1.52657,97.8696,56.2511)">
                <path d="M51.185,125.894C51.185,125.894 49.36,131.266 66.494,131.266L106.386,131.266C106.386,131.266 116.49,128.304 117.407,122.706C118.323,117.108 118.223,118.991 118.223,118.991L120.569,114.998C120.569,114.998 121.636,120.175 121.22,125.721C120.804,131.266 114.782,153.864 114.782,169.823C114.782,185.783 125.358,196.36 144.028,206.928C162.698,217.496 176.927,223.023 172.405,251.155C167.884,279.286 155.035,299.624 153.761,312.174C152.488,324.724 152.489,328.833 141.599,326.966C130.708,325.099 132.611,312.725 131.607,292.242C130.668,273.091 131.207,269.804 124.824,268.865C118.44,267.926 116.656,312.857 108.098,323.203C99.54,333.549 87.433,330.732 83.629,318.716C83.629,318.716 76.021,337.457 58.228,323.789C48.934,316.65 54.786,294.195 46.061,259.328C37.336,224.461 29.979,205.212 51.303,169.267C59.399,155.62 48.934,146.422 51.185,125.894Z" style="fill:rgb(229,242,13);"/>
            </g>
            <g transform="matrix(2.54425,0,0,1.52657,97.8696,56.2511)">
                <path d="M53.681,106.75C53.681,106.75 58.503,90.366 79.49,87.782L79.123,103.29L87.808,103.29C87.808,103.29 86.115,87.22 87.808,87.456C112.932,90.951 118.323,106.45 118.323,106.45L120.569,114.81L118.323,114.998C118.323,114.998 119.144,103.29 105.305,103.29L60.674,103.29C60.674,103.29 56.175,103.668 53.681,106.75Z" style="fill:rgb(229,242,13);"/>
            </g>
        </g>
    </g>
</svg>
