<?xml version="1.0" encoding="UTF-8" standalone="no"?>
<!DOCTYPE svg PUBLIC "-//W3C//DTD SVG 1.1//EN" "http://www.w3.org/Graphics/SVG/1.1/DTD/svg11.dtd">
<svg width="100%" height="100%" viewBox="0 0 211 330" version="1.1" xmlns="http://www.w3.org/2000/svg" xmlns:xlink="http://www.w3.org/1999/xlink" xml:space="preserve" xmlns:serif="http://www.serif.com/" style="fill-rule:evenodd;clip-rule:evenodd;stroke-linejoin:round;stroke-miterlimit:2;">
    <g id="hufen" transform="matrix(0.393043,0,0,0.655064,-38.467,-72.1336)">
        <rect x="97.87" y="110.117" width="535.844" height="502.896" style="fill:none;"/>
        <g transform="matrix(2.54425,0,0,1.52657,97.8696,56.2511)">
            <path d="M60.357,327.107C58.959,330.406 56.429,338.998 69.467,338.722C82.504,338.446 81.102,331.169 79.065,325.396C79.065,325.396 76.339,330.057 70.165,329.854C63.991,329.652 60.357,327.107 60.357,327.107Z" style="fill:rgb(64,191,169);"/>
        </g>
        <g transform="matrix(2.54425,0,0,1.52657,97.8696,56.2511)">
            <path d="M87.329,323.149C87.329,323.149 90.564,328.572 94.402,329.146C98.241,329.72 101.672,329.132 101.672,329.132C101.672,329.132 102.271,336.982 99.33,338.728C96.39,340.475 88.356,342.079 84.813,338.141C81.27,334.203 87.329,323.149 87.329,323.149Z" style="fill:rgb(64,191,169);"/>
        </g>
        <g transform="matrix(2.54425,0,0,1.52657,97.8696,56.2511)">
            <path d="M136.026,324.268C136.026,324.268 132.882,333.83 138.897,336.279C144.912,338.728 152.72,337.321 153.984,331.866C155.249,326.412 152.762,318.967 152.762,318.967C152.762,318.967 151.927,325.694 145.064,326.94C138.2,328.186 136.026,324.268 136.026,324.268Z" style="fill:rgb(64,191,169);"/>
        </g>
    </g>
</svg>
