<?xml version="1.0" encoding="UTF-8" standalone="no"?>
<!DOCTYPE svg PUBLIC "-//W3C//DTD SVG 1.1//EN" "http://www.w3.org/Graphics/SVG/1.1/DTD/svg11.dtd">
<svg width="100%" height="100%" viewBox="0 0 212 330" version="1.1" xmlns="http://www.w3.org/2000/svg" xmlns:xlink="http://www.w3.org/1999/xlink" xml:space="preserve" xmlns:serif="http://www.serif.com/" style="fill-rule:evenodd;clip-rule:evenodd;stroke-linejoin:round;stroke-miterlimit:2;">
    <g transform="matrix(1,0,0,1,-989,0)">
        <g id="ohren" transform="matrix(0.393043,0,0,0.655064,951.2,-72.1336)">
            <rect x="97.87" y="110.117" width="535.844" height="502.896" style="fill:none;"/>
            <g transform="matrix(2.54425,0,0,1.52657,-263.704,-21.6658)">
                <path d="M209.681,143.626C209.681,143.626 207.74,123.246 200.946,117.146C194.153,111.046 182.923,116.314 184.032,134.476C185.141,152.638 197.14,154.421 197.14,154.421C200.165,147.933 204.189,143.945 209.681,143.626Z" style="fill:rgb(242,94,13);"/>
            </g>
            <g transform="matrix(2.54425,0,0,1.52657,-263.704,-21.6658)">
                <path d="M241.716,140.665C241.716,140.665 248.624,128.846 250,117.7C251.386,106.47 266.662,108.733 268.603,122.83C270.544,136.927 260.437,148.143 260.437,148.143L257.2,151.098C254.855,146.636 248.379,144.511 241.716,140.665Z" style="fill:rgb(242,94,13);"/>
            </g>
        </g>
    </g>
</svg>
