<?xml version="1.0" encoding="UTF-8" standalone="no"?>
<!DOCTYPE svg PUBLIC "-//W3C//DTD SVG 1.1//EN" "http://www.w3.org/Graphics/SVG/1.1/DTD/svg11.dtd">
<svg width="100%" height="100%" viewBox="0 0 212 330" version="1.1" xmlns="http://www.w3.org/2000/svg" xmlns:xlink="http://www.w3.org/1999/xlink" xml:space="preserve" xmlns:serif="http://www.serif.com/" style="fill-rule:evenodd;clip-rule:evenodd;stroke-linecap:round;stroke-linejoin:round;stroke-miterlimit:1.5;">
    <g transform="matrix(1,0,0,1,-2021,0)">
        <g id="outline" transform="matrix(0.393043,0,0,0.655064,1983.19,-72.1336)">
            <rect x="97.87" y="110.117" width="535.844" height="502.896" style="fill:none;"/>
            <g transform="matrix(2.37406,0,0,1.51778,-255.62,-188.799)">
                <g transform="matrix(1.07169,0,0,1.00579,-3.40496,110.117)">
                    <path d="M204.967,154.331C187.637,154.331 185.419,182.307 204.412,182.307L248.5,182.307C263.75,182.307 265.364,154.47 247.643,154.47C229.922,154.47 222.297,154.331 204.967,154.331Z" style="fill:none;stroke:rgb(142,142,143);stroke-width:3px;"/>
                </g>
                <g transform="matrix(1.07169,0,0,1.00579,-3.40496,110.117)">
                    <path d="M260.437,157.49C257.731,148.866 248.269,138.496 225.743,138.496C200.808,138.496 195.795,157.791 195.795,157.791" style="fill:none;stroke:rgb(142,142,143);stroke-width:3px;"/>
                </g>
                <g transform="matrix(1.07169,0,0,1.00579,-3.40496,110.117)">
                    <path d="M221.604,138.496L221.604,154.331" style="fill:none;stroke:rgb(142,142,143);stroke-width:3px;"/>
                </g>
                <g transform="matrix(1.07169,0,0,1.00354,5.5098,110.554)">
                    <path d="M221.604,138.496L221.604,154.331" style="fill:none;stroke:rgb(142,142,143);stroke-width:3px;"/>
                </g>
                <g transform="matrix(1.07169,0,0,1.00579,-3.40496,110.117)">
                    <path d="M209.681,143.626C209.681,143.626 207.74,123.246 200.946,117.146C194.153,111.046 182.923,116.314 184.032,134.476C185.141,152.638 197.14,154.421 197.14,154.421" style="fill:none;stroke:rgb(142,142,143);stroke-width:3px;"/>
                </g>
                <g transform="matrix(1.07169,0,0,1.00579,-3.40496,110.117)">
                    <path d="M243.786,138.621C243.786,138.621 248.624,128.846 250,117.7C251.386,106.47 266.662,108.733 268.603,122.83C270.544,136.927 260.437,148.143 260.437,148.143" style="fill:none;stroke:rgb(142,142,143);stroke-width:3px;"/>
                </g>
                <g transform="matrix(1.07169,0,0,1.00579,-3.40496,110.117)">
                    <path d="M263.335,176.761C263.335,193.814 249.915,212.253 261.824,236.931C273.733,261.609 302.986,256.618 313.106,279.632C323.227,302.647 296.47,349.923 295.361,366.837C294.251,383.751 273.455,380.84 273.455,363.787C273.455,346.734 275.119,326.909 270.128,320.254" style="fill:none;stroke:rgb(142,142,143);stroke-width:3px;"/>
                </g>
                <g transform="matrix(1.07169,0,0,1.00579,-3.40496,110.117)">
                    <path d="M278.14,375.309C276.367,385.276 276.783,388.188 288.983,388.188C301.183,388.188 294.876,370.007 294.876,370.007" style="fill:none;stroke:rgb(142,142,143);stroke-width:3px;"/>
                </g>
                <g transform="matrix(1.07169,0,0,1.00579,-3.40496,110.117)">
                    <path d="M286.938,303.756C254.184,303.063 263.77,380.761 240.459,380.761C231.447,380.761 228.813,372.799 228.813,372.799" style="fill:none;stroke:rgb(142,142,143);stroke-width:3px;"/>
                </g>
                <g transform="matrix(1.07169,0,0,1.00579,-3.40496,110.117)">
                    <path d="M243.786,380.173C243.786,390.961 240.875,391.515 232.695,391.515C220.079,391.515 228.813,375.017 228.813,375.017" style="fill:none;stroke:rgb(142,142,143);stroke-width:3px;"/>
                </g>
                <g transform="matrix(1.07169,0,0,1.00579,-3.40496,110.117)">
                    <path d="M221.742,376.542C224.793,387.91 218.514,390.845 206.769,389.436C196.371,388.188 202.471,378.147 202.471,378.147" style="fill:none;stroke:rgb(142,142,143);stroke-width:3px;"/>
                </g>
                <g transform="matrix(1.07169,0,0,1.00579,-3.40496,110.117)">
                    <path d="M230.477,321.086C230.061,347.289 229.229,383.375 210.235,380.761C191.242,378.147 194.569,346.318 191.242,324.552C187.914,302.785 169.603,257.852 186.528,232.91C204.967,205.737 190.687,197.003 193.321,176.761" style="fill:none;stroke:rgb(142,142,143);stroke-width:3px;"/>
                </g>
                <g transform="matrix(1.07169,0,0,1.00579,-3.40496,110.117)">
                    <path d="M213.84,186.466C217.909,189.311 227.419,189.314 230.477,187.021" style="fill:none;stroke:rgb(142,142,143);stroke-width:3px;"/>
                </g>
                <g transform="matrix(1.07169,0,0,1.00579,-3.40496,110.117)">
                    <path d="M222.508,183.78C222.158,185.592 222.508,188.676 222.508,188.676" style="fill:none;stroke:rgb(142,142,143);stroke-width:3px;"/>
                </g>
                <g transform="matrix(1.07169,0,0,1.00579,-3.40496,110.117)">
                    <path d="M221.425,188.676C221.425,188.676 221.253,192 223.561,192.388" style="fill:none;stroke:rgb(142,142,143);stroke-width:3px;"/>
                </g>
                <g transform="matrix(1.07169,0,0,1.00579,-3.40496,110.117)">
                    <path d="M218.104,313.929C223.561,318.731 239.48,318.421 239.48,318.421" style="fill:none;stroke:rgb(142,142,143);stroke-width:3px;"/>
                </g>
            </g>
        </g>
    </g>
</svg>
