<?xml version="1.0" encoding="UTF-8" standalone="no"?>
<!DOCTYPE svg PUBLIC "-//W3C//DTD SVG 1.1//EN" "http://www.w3.org/Graphics/SVG/1.1/DTD/svg11.dtd">
<svg width="100%" height="100%" viewBox="0 0 211 330" version="1.1" xmlns="http://www.w3.org/2000/svg" xmlns:xlink="http://www.w3.org/1999/xlink" xml:space="preserve" xmlns:serif="http://www.serif.com/" style="fill-rule:evenodd;clip-rule:evenodd;stroke-linejoin:round;stroke-miterlimit:2;">
    <g transform="matrix(1,0,0,1,-244,0)">
        <g id="schwanz" transform="matrix(0.393043,0,0,0.655064,205.533,-72.1336)">
            <rect x="97.87" y="110.117" width="535.844" height="502.896" style="fill:none;"/>
            <g transform="matrix(2.54425,0,0,1.52657,108.24,59.8239)">
                <path d="M147.393,208.507C155.592,189.961 162.711,170.185 148.736,151.199C134.76,132.214 139.243,123.776 149.791,118.238C160.338,112.701 163.412,126.137 163.412,126.137L155.592,132.214L165.612,130.104L162.361,135.994L168.164,135.123C168.164,135.123 171.11,144.68 171.681,158.251L166.845,160.637L171.776,162.463C171.817,177.573 168.619,196.53 155.934,212.827L147.393,208.507Z" style="fill:rgb(77,125,179);"/>
            </g>
        </g>
    </g>
</svg>
